<?xml version="1.0" encoding="UTF-8" standalone="no"?>
<!-- Created with Inkscape (http://www.inkscape.org/) -->

<svg
   width="400"
   height="400"
   viewBox="0 0 105.83333 105.83333"
   version="1.1"
   id="svg5"
   inkscape:version="1.1 (1:1.1+202106031931+af4d65493e)"
   sodipodi:docname="logo.svg"
   inkscape:export-filename="/home/reza/PROGRAMMING/htdocs/Pencarian-Kasus-Covid19-Indonesia/src/img/favicon.png"
   inkscape:export-xdpi="3.8822346"
   inkscape:export-ydpi="3.8822346"
   xmlns:inkscape="http://www.inkscape.org/namespaces/inkscape"
   xmlns:sodipodi="http://sodipodi.sourceforge.net/DTD/sodipodi-0.dtd"
   xmlns="http://www.w3.org/2000/svg"
   xmlns:svg="http://www.w3.org/2000/svg">
  <sodipodi:namedview
     id="namedview7"
     pagecolor="#ffffff"
     bordercolor="#666666"
     borderopacity="1.0"
     inkscape:pageshadow="2"
     inkscape:pageopacity="0.0"
     inkscape:pagecheckerboard="0"
     inkscape:document-units="mm"
     showgrid="false"
     units="px"
     inkscape:zoom="0.88565124"
     inkscape:cx="238.80732"
     inkscape:cy="206.06305"
     inkscape:window-width="1366"
     inkscape:window-height="711"
     inkscape:window-x="0"
     inkscape:window-y="0"
     inkscape:window-maximized="1"
     inkscape:current-layer="layer1" />
  <defs
     id="defs2">
    <style
       id="style844">.cls-1{fill-rule:evenodd;}</style>
  </defs>
  <g
     inkscape:groupmode="layer"
     id="layer2"
     inkscape:label="Layer 2" />
  <g
     inkscape:label="Layer 1"
     inkscape:groupmode="layer"
     id="layer1">
    <g
       id="g840"
       inkscape:export-filename="/home/reza/PROGRAMMING/htdocs/Pencarian-Kasus-Covid19-Indonesia/src/img/favicon.png"
       inkscape:export-xdpi="7.7644691"
       inkscape:export-ydpi="7.7644691">
      <path
         style="fill:#299d8f;fill-opacity:0.996078;stroke:#ffffff;stroke-width:0.529167;stroke-linecap:butt;stroke-linejoin:miter;stroke-miterlimit:4;stroke-dasharray:none;stroke-opacity:1"
         d="M 6.2801339,61.122959 4.0075148,50.341284 H 20.287344 c 3.53292,0 3.111342,10.18106 6.770612,10.18106 3.65927,0 13.454237,-25.314825 18.451594,-25.792707 4.997357,-0.477882 6.910391,11.637719 12.265318,11.637719 3.650312,0 27.324634,-20.323808 27.324634,-20.323808 L 89.236695,36.310155 87.387857,62.116677 77.26313,77.266141 62.173085,86.895156 38.921243,89.218152 21.891176,82.042649 11.895666,72.542031 Z"
         id="path4406-0"
         sodipodi:nodetypes="ccszzsccccccccc" />
      <path
         style="fill:#3eccbb;fill-opacity:0.991227;stroke:#ffffff;stroke-width:0.529167;stroke-linecap:butt;stroke-linejoin:miter;stroke-miterlimit:4;stroke-dasharray:none;stroke-opacity:1"
         d="M 4.6525226,37.069714 4.0075148,50.341284 H 20.287344 c 3.53292,0 3.111342,10.18106 6.770612,10.18106 3.65927,0 13.454237,-25.314825 18.451594,-25.792707 4.997357,-0.477882 6.910391,11.637719 12.265318,11.637719 3.480094,0 27.324634,-20.323808 27.324634,-20.323808 L 79.335705,17.473151 66.658283,7.0880223 46.761487,2.1631754 30.199596,5.4434989 18.015103,13.019787 10.721829,22.777628 Z"
         id="path4406"
         sodipodi:nodetypes="ccszzscccccccc" />
      <path
         id="path850"
         style="fill:#1a2f38;fill-opacity:1;stroke:none;stroke-width:3.21875;stroke-opacity:1"
         d="M 176.73633,2.1757812 A 172.5895,172.5895 0 1 0 272.33398,318.44922 l 72.03516,79.375 51.5,-47.08984 -74.70703,-81.40235 A 172.5895,172.5895 0 0 0 176.73633,2.1757812 Z M 144.07617,25.333984 A 153.34137,153.34137 0 0 1 285.14453,66.550781 152.82637,152.82637 0 0 1 330.20703,174.99023 153.34137,153.34137 0 1 1 144.07617,25.333984 Z"
         transform="scale(0.26458333)" />
    </g>
  </g>
</svg>
